<svg width="517" height="333" viewBox="0 0 517 333" fill="none" xmlns="http://www.w3.org/2000/svg">
<g opacity="0.3">
<path d="M516.999 240.848V323.44H292.546C291.441 323.44 290.546 322.544 290.546 321.44V291.351V275.213C290.546 274.109 291.441 273.213 292.546 273.213H350.758C351.863 273.213 352.758 274.109 352.758 275.213V289.351C352.758 290.455 353.654 291.351 354.758 291.351H412.482V240.848C412.482 239.743 413.377 238.848 414.482 238.848H514.999C516.103 238.848 516.999 239.743 516.999 240.848Z" fill="#FF8D86"/>
<rect x="487.03" y="282.468" width="23.9725" height="6.60875" rx="1" fill="#F37C75"/>
<path d="M469.998 238.848H487.089V246.326C487.089 246.993 486.448 247.473 485.808 247.286L478.824 245.245C478.641 245.192 478.446 245.192 478.263 245.245L471.278 247.286C470.638 247.473 469.998 246.993 469.998 246.326V238.848Z" fill="#F37C75"/>
<path d="M409.122 240.848C409.122 239.744 410.018 238.848 411.122 238.848H435.09C436.195 238.848 437.09 239.744 437.09 240.848V291.718H409.122V240.848Z" fill="#F37C75"/>
</g>
<g opacity="0.3">
<path d="M94.001 239.084V321.676H309.908C311.013 321.676 311.908 320.781 311.908 319.676V289.587V273.45C311.908 272.345 311.013 271.45 309.908 271.45H254.044C252.939 271.45 252.044 272.345 252.044 273.45V287.587C252.044 288.692 251.148 289.587 250.044 289.587H194.574V239.084C194.574 237.98 193.678 237.084 192.574 237.084H96.001C94.8964 237.084 94.001 237.98 94.001 239.084Z" fill="#FF8D86"/>
<rect width="23.0678" height="6.60875" rx="1" transform="matrix(-1 0 0 1 122.833 280.704)" fill="#F37C75"/>
<path d="M139.227 237.084H122.781V244.547C122.781 245.219 123.429 245.699 124.071 245.504L130.713 243.488C130.903 243.43 131.105 243.43 131.294 243.488L137.936 245.504C138.578 245.699 139.227 245.219 139.227 244.547V237.084Z" fill="#F37C75"/>
</g>
<g opacity="0.3">
<path d="M-0.000160217 261.996V325.202H91.999C93.1036 325.202 93.999 324.307 93.999 323.202V300.467V261.996C93.999 260.891 93.1036 259.996 91.999 259.996H1.99984C0.895271 259.996 -0.000160217 260.891 -0.000160217 261.996Z" fill="#FF8D86"/>
<rect width="21.3635" height="5.287" rx="1" transform="matrix(-1 0 0 1 27.7725 293.482)" fill="#F37C75"/>
<path d="M42.7285 259.995H27.7741V265.743C27.7741 266.4 28.3972 266.878 29.0322 266.709L34.9932 265.116C35.1623 265.071 35.3403 265.071 35.5094 265.116L41.4704 266.709C42.1054 266.878 42.7285 266.4 42.7285 265.743V259.995Z" fill="#F37C75"/>
</g>
<path d="M135.617 260.147L171.071 207.484L135.617 179.947L115.998 210.582L87.0845 151.034L71.9395 171.342C76.2994 187.52 87.4975 227.103 97.4107 256.017C100.853 273.571 127.012 272.539 135.617 260.147Z" fill="#FEC7C2"/>
<path d="M65.7437 137.265L87.7728 151.377L83.9866 158.261L59.2031 157.229L51.6306 148.624C49.7949 148.279 44.1272 147.797 36.1416 148.624C28.156 149.45 29.8311 143.69 31.6669 140.707L65.7437 137.265Z" fill="#FEC7C2"/>
<path d="M34.4217 155.851L66.777 147.245L85.0199 151.72L87.4293 155.851L77.4474 179.601L70.5633 175.47L43.7152 176.503L38.5521 172.028L26.1607 167.898L16.8672 150.343L22.7187 148.278L34.4217 155.851Z" fill="#FEC7C2"/>
<path d="M45.7818 155.162L54.7312 168.242L58.1733 176.159H43.7167L39.2419 171.684L25.818 168.242L16.5244 150.688L22.0317 147.934L31.6695 159.293L42.684 166.865C41.6514 163.997 39.5173 157.916 39.2419 156.539C38.9666 155.162 43.4871 155.048 45.7818 155.162Z" fill="#FFBCB6"/>
<path d="M341.109 200.254L315.638 162.391L281.562 197.156C294.986 216.087 321.834 252.229 334.225 252.229C346.616 252.229 394.461 207.482 420.965 185.109C426.816 184.191 439.139 182.217 441.617 181.666C444.715 180.978 465.367 168.931 468.809 167.21C471.563 165.833 469.957 160.67 468.809 158.261C463.761 157.572 450.635 156.195 438.519 156.195C447.882 151.239 444.486 146.099 441.617 144.148L407.541 161.014L402.378 169.963L341.109 200.254Z" fill="#FEC7C2"/>
<path d="M456.762 159.639L434.732 181.324H442.649L470.53 166.179C470.989 163.426 471.838 157.574 471.562 156.197C471.287 154.82 461.58 157.918 456.762 159.639Z" fill="#FFBCB6"/>
<path d="M254.369 107.662L206.181 104.22L166.597 205.073L148.698 330.363H294.986L292.576 205.073L273.645 104.22L254.369 107.662Z" fill="#DB371D"/>
<path d="M170.039 175.127L157.304 275.979L166.941 247.41L186.217 169.275L170.039 175.127Z" fill="#CC331B"/>
<path d="M178.644 94.2397C185.184 94.2397 211.229 103.419 224.08 108.008L193.445 138.642C188.741 153.902 180.572 191.512 171.76 212.991C171.76 212.991 133.898 190.847 125.637 182.356C141.585 153.328 167.202 94.2397 178.644 94.2397Z" fill="#DB371D"/>
<path d="M335.601 176.849L289.133 216.433L255.057 108.352C265.153 103.992 285.803 87.1186 294.296 95.2723C302.901 103.533 327.34 157.229 335.601 176.849Z" fill="#DB371D"/>
<path d="M301.182 205.763L277.432 145.871L288.446 216.433L301.182 205.763Z" fill="#CC331B"/>
<path d="M215.818 103.189L206.524 100.78L164.875 272.194L155.926 268.752L151.451 287.684L161.433 293.191L151.451 328.644H300.836L292.575 206.451L268.825 100.091L260.22 104.91L266.316 150.321C266.728 153.392 264.276 156.095 261.179 155.983L215.37 154.327C212.456 154.222 210.25 151.656 210.583 148.76L215.818 103.189Z" fill="#FFA000"/>
<rect y="323.029" width="516.997" height="9.74589" fill="#DA5951"/>
<rect x="222.441" y="313.283" width="45.5591" height="5.84754" rx="1" fill="#FFAEA9" fill-opacity="0.4"/>
<path d="M264.173 324.978H200.807H191.75C191.198 324.978 190.75 324.53 190.75 323.978V322.434C190.75 321.881 191.198 321.434 191.75 321.434H226.355C226.63 321.434 226.893 321.32 227.082 321.121L232.356 315.545C232.545 315.345 232.808 315.232 233.083 315.232H274.83C275.799 315.232 276.201 316.471 275.418 317.041L264.761 324.786C264.59 324.911 264.384 324.978 264.173 324.978Z" fill="#DF3F35"/>
<path d="M275.925 321.078H313.561V324.976H275.925V321.078Z" fill="#F26E66"/>
<path d="M279.887 321.078V323.027" stroke="#DF3F35" stroke-width="0.5" stroke-linecap="round"/>
<path d="M285.831 321.078V323.027" stroke="#DF3F35" stroke-width="0.5" stroke-linecap="round"/>
<path d="M291.772 321.078V323.027" stroke="#DF3F35" stroke-width="0.5" stroke-linecap="round"/>
<path d="M297.716 321.078V323.027" stroke="#DF3F35" stroke-width="0.5" stroke-linecap="round"/>
<path d="M303.657 321.078V323.027" stroke="#DF3F35" stroke-width="0.5" stroke-linecap="round"/>
<path d="M309.6 321.078V323.027" stroke="#DF3F35" stroke-width="0.5" stroke-linecap="round"/>
<path d="M236.251 317.238C236.288 317.201 236.339 317.18 236.391 317.18H269.495C269.674 317.18 269.763 317.397 269.635 317.523L266.08 321.021C266.043 321.058 265.992 321.079 265.94 321.079H232.836C232.657 321.079 232.568 320.862 232.696 320.736L236.251 317.238Z" fill="#DF3F35"/>
<path d="M318.807 265.797L320.214 265.631L321.361 274.079L319.953 274.245L318.807 265.797Z" fill="#DF3F35"/>
<path d="M317.755 268.576L321.976 268.076L328.919 319.225L324.698 319.725L317.755 268.576Z" fill="#DF3F35"/>
<path fill-rule="evenodd" clip-rule="evenodd" d="M322.362 270.917L323.207 270.817L323.207 270.817L323.668 270.763L326.753 293.496L325.831 293.605L323.267 274.716L323.037 275.89L322.362 270.917Z" fill="#DF3F35"/>
<path d="M331.305 267.707H333.469V318.015H331.305V267.707Z" fill="#DF3F35"/>
<path d="M331.305 265.31H333.469V267.706H331.305V265.31Z" fill="#DF3F35"/>
<path d="M316.161 285.555C316.137 284.966 316.575 284.474 317.125 284.474H341.163C341.712 284.474 342.151 284.966 342.127 285.555L340.674 320.823C340.628 321.931 339.778 322.804 338.746 322.804H319.542C318.509 322.804 317.66 321.931 317.614 320.823L316.161 285.555Z" fill="#F26E66"/>
<rect x="214.098" y="167.555" width="53.6961" height="7.57252" rx="2" fill="#E39004"/>
<path d="M270.356 58.7216C273.585 56.7629 285.133 43.5027 281.904 21.9569L262.284 19.5475C263.898 33.2584 267.773 60.2886 270.356 58.7216Z" fill="#25282B"/>
<path d="M219.184 73.7787V111.236C219.184 111.236 219.758 125.425 239.295 124.857C258.832 124.29 256.533 113.506 256.533 113.506C255.767 106.885 255.55 93.6425 266.302 93.6425C281.378 93.6425 277.411 54.6714 275.495 36.8885L251.362 27.8079C248.872 31.9698 242.972 40.6343 239.295 41.9964C239.295 48.2393 234.123 51.6446 232.4 52.2121C230.676 52.7796 230.554 51.4049 229.527 49.3744C227.803 45.9692 228.377 59.5901 223.78 57.8875C221.498 57.042 212.863 58.455 213.438 65.8331C213.897 71.7355 217.46 73.0219 219.184 73.7787Z" fill="#FEC7C2"/>
<path d="M218.394 14.868C208.587 17.1367 201.735 34.3448 213.183 66.0503C220.131 53.8363 228.237 64.3054 229.395 71.8664C230.553 71.8664 231.132 68.3768 232.869 61.3974C233.593 58.4893 238.304 43.9488 255.451 43.9488C283.243 43.9488 282.664 26.5003 282.085 22.429C281.506 18.3576 257.188 -1.41732 218.394 14.868Z" fill="#25282B"/>
</svg>
